<svg width="124" height="44" viewBox="0 0 124 44" fill="none" xmlns="http://www.w3.org/2000/svg">
<path d="M43.2073 17.3351L43.3211 17.2099C42.5662 13.7634 40.9994 10.5481 38.7516 7.83281C36.5038 5.11752 33.6403 2.98115 30.4005 1.60224L30.4171 1.76081C33.6345 3.14435 36.4746 5.28026 38.6998 7.98985C40.925 10.6994 42.4706 13.9039 43.2073 17.3351Z" fill="#A2A199"/>
<path d="M43.5847 24.1182C43.0613 29.4103 40.6325 34.3299 36.7526 37.9565C40.6331 34.3292 43.062 29.4085 43.5847 24.1154L29.0685 40.1154L24.4314 0.161351C23.5622 0.0554842 22.6874 0.00161342 21.8118 0C21.3817 0 20.9543 4.07521e-06 20.5297 0.0389538L25.7801 43.5068L25.7995 43.6459C30.523 42.7726 34.8323 40.3753 38.0711 36.8194C41.3099 33.2635 43.3006 28.7437 43.7402 23.9485L43.5847 24.1182Z" fill="#A2A199"/>
<path d="M16.9943 0.536918L16.9777 0.397812C12.8992 1.32088 9.16666 3.38775 6.21558 6.3572C3.26451 9.32664 1.21659 13.0762 0.310791 17.1685L0.502269 16.9681L13.1398 3.43312L17.713 43.4957C19.0641 43.7541 20.4364 43.8845 21.8118 43.8852C21.945 43.8852 22.0726 43.8852 22.2003 43.8852L16.9943 0.536918Z" fill="#A2A199"/>
<path d="M33.2366 28.2356L43.2074 17.338C42.4715 13.9058 40.9263 10.7002 38.701 7.98956C36.4758 5.27895 33.6353 3.14218 30.4172 1.75811L33.2366 28.2356Z" fill="#A2A199"/>
<path d="M8.94949 15.3016L0.127652 24.8304L0 24.9639C0.486281 28.4709 1.80588 31.8094 3.8477 34.6984C5.88953 37.5874 8.5938 39.9423 11.7329 41.5648L11.7162 41.4007L8.94949 15.3016Z" fill="#A2A199"/>
<path d="M53.2002 10.8866H60.1378V13.4573H60.21C60.8709 12.445 61.7783 11.6184 62.8466 11.0556C63.9149 10.4929 65.1086 10.2125 66.3151 10.2412C73.286 10.2412 76.2386 16.245 76.2386 22.5048C76.2386 28.2944 73.1583 33.7835 66.8729 33.7835C64.1339 33.7835 62.0387 32.7541 60.5402 30.7399H60.4542V40.6025H53.1836L53.2002 10.8866ZM60.21 21.7787C60.21 25.6736 61.32 28.2081 64.6168 28.2081C67.8663 28.2081 68.9791 24.8223 68.9791 21.7787C68.9791 18.9465 67.8691 15.8166 64.6584 15.8166C62.7075 15.8166 60.21 17.1882 60.21 21.7787Z" fill="#A2A199"/>
<path d="M90.5995 33.1404H82.2161L74.8151 10.8834H82.3854L86.4508 25.5897H86.534L90.6411 10.8834H98.0421L90.5995 33.1404Z" fill="#A2A199"/>
<path d="M103.628 23.7927C103.759 26.8363 105.51 28.8533 108.59 28.8533C110.344 28.8533 112.056 28.0382 112.752 26.4078H119.54C118.214 31.5548 113.466 33.7832 108.504 33.7832C101.289 33.7832 96.3576 29.4098 96.3576 21.9481C96.3576 15.1319 101.788 10.2409 108.335 10.2409C116.288 10.2409 120.267 16.2448 119.926 23.7927H103.628ZM112.658 19.7113C112.53 17.2241 110.777 15.1653 108.34 15.1653C105.773 15.1653 104.061 17.0098 103.623 19.7113H112.658Z" fill="#A2A199"/>
<path d="M123.386 32.4672C123.192 32.6622 122.962 32.8169 122.708 32.9224C122.454 33.028 122.182 33.0823 121.907 33.0823C121.633 33.0823 121.36 33.028 121.107 32.9224C120.853 32.8169 120.622 32.6622 120.428 32.4672C120.232 32.2736 120.077 32.0421 119.973 31.7867C119.869 31.5313 119.818 31.2574 119.823 30.9815C119.824 30.4274 120.044 29.8961 120.434 29.5039C120.825 29.1118 121.355 28.8908 121.907 28.8894C122.321 28.8888 122.726 29.0113 123.07 29.2415C123.414 29.4716 123.682 29.799 123.841 30.1822C123.999 30.5654 124.041 30.9871 123.96 31.3939C123.879 31.8006 123.679 32.1742 123.386 32.4672ZM120.636 29.7073C120.467 29.8728 120.333 30.0711 120.243 30.2902C120.153 30.5093 120.108 30.7445 120.112 30.9815C120.108 31.2204 120.152 31.4575 120.242 31.6788C120.332 31.9002 120.465 32.1011 120.634 32.2697C120.801 32.4374 120.999 32.5705 121.218 32.6612C121.437 32.752 121.671 32.7987 121.907 32.7987C122.144 32.7987 122.378 32.752 122.597 32.6612C122.815 32.5705 123.014 32.4374 123.181 32.2697C123.35 32.1015 123.484 31.9006 123.574 31.6792C123.663 31.4578 123.707 31.2205 123.703 30.9815C123.705 30.6245 123.6 30.275 123.403 29.9776C123.206 29.6802 122.926 29.4484 122.597 29.3117C122.268 29.175 121.905 29.1396 121.556 29.2101C121.207 29.2805 120.887 29.4537 120.636 29.7073ZM121.868 29.8242C122.081 29.8136 122.293 29.8419 122.496 29.9076C122.61 29.9518 122.707 30.0329 122.771 30.1381C122.835 30.2433 122.862 30.3667 122.848 30.4891C122.855 30.578 122.837 30.667 122.798 30.7468C122.758 30.8266 122.698 30.8943 122.623 30.9426C122.523 31.0028 122.412 31.0416 122.296 31.0567C122.373 31.0647 122.448 31.0889 122.515 31.1277C122.583 31.1665 122.641 31.2191 122.687 31.282C122.764 31.3851 122.808 31.5094 122.812 31.6381V31.8078C122.812 31.8579 122.812 31.9163 122.812 31.9775C122.813 32.0186 122.822 32.0591 122.837 32.0972V32.125H122.46C122.46 32.125 122.46 32.1083 122.46 32.1027C122.461 32.0944 122.461 32.086 122.46 32.0777V32.0026V31.8217C122.474 31.722 122.462 31.6201 122.423 31.527C122.384 31.4339 122.321 31.3531 122.24 31.2931C122.098 31.2347 121.944 31.2099 121.791 31.2208H121.472V32.125H121.067V29.8242H121.868ZM122.301 30.1859C122.148 30.1187 121.98 30.0891 121.813 30.0996H121.469V30.9342H121.832C121.963 30.9409 122.094 30.923 122.218 30.8814C122.292 30.8569 122.355 30.8087 122.398 30.7442C122.441 30.6798 122.462 30.6027 122.457 30.5253C122.465 30.4598 122.455 30.3933 122.427 30.3333C122.4 30.2733 122.356 30.2222 122.301 30.1859Z" fill="#A2A199"/>
</svg>
